<svg width="212" height="50" viewBox="0 0 212 50" fill="none" xmlns="http://www.w3.org/2000/svg">
<g clip-path="url(#clip0_688_173)">
<path d="M46.418 48.7209V29.8364H52.8471C56.5573 29.8364 58.4265 32.5544 58.4265 35.6971C58.4265 38.8398 56.5573 41.5861 52.8471 41.5861H49.5617V48.7209H46.418ZM52.4789 32.5827H49.5617V38.8115H52.4789C54.1499 38.8115 55.2261 37.5658 55.2261 35.6971C55.2261 33.8285 54.1499 32.5827 52.4789 32.5827Z" fill="#1D1D1B"/>
<path d="M61.5117 48.7209V29.8364H71.8493V32.5827H64.6555V37.7073H71.651V40.482H64.6555V48.7209H61.5117Z" fill="#1D1D1B"/>
<path d="M85.0203 48.721L84.0007 44.9837H77.5149L76.4953 48.721H73.2383L78.8744 29.8365H82.6412L88.2773 48.721H85.0203ZM76.6086 26.3824C76.6086 25.5047 77.3167 24.7969 78.1946 24.7969C79.0726 24.7969 79.7807 25.5047 79.7807 26.3824C79.7807 27.2601 79.0726 27.9679 78.1946 27.9679C77.3167 27.9679 76.6086 27.2601 76.6086 26.3824ZM80.7719 32.6395L78.1663 42.2091H83.3776L80.7719 32.6395ZM81.7349 26.3824C81.7349 25.5047 82.4713 24.7969 83.3209 24.7969C84.1706 24.7969 84.9353 25.5047 84.9353 26.3824C84.9353 27.2601 84.1989 27.9679 83.3209 27.9679C82.4429 27.9679 81.7349 27.2601 81.7349 26.3824Z" fill="#1D1D1B"/>
<path d="M91.2812 48.7209V29.8364H101.619V32.5827H94.425V37.7073H101.421V40.482H94.425V48.7209H91.2812Z" fill="#1D1D1B"/>
<path d="M105.27 48.7209V29.8364H115.607V32.5827H108.413V37.7073H115.409V40.482H108.413V48.7209H105.27Z" fill="#1D1D1B"/>
<path d="M119.262 48.7209V29.8364H122.405V48.7209H119.262Z" fill="#1D1D1B"/>
<path d="M136.705 48.7209L131.833 40.935L130.417 43.0867V48.7209H127.273V29.8364H130.417V38.9248L136.28 29.8364H139.962L133.788 38.7549L140.415 48.7209H136.705Z" fill="#1D1D1B"/>
<path d="M149.421 29.5249C154.208 29.5249 156.983 33.7435 156.983 39.2927C156.983 44.842 154.208 49.0606 149.421 49.0606C144.635 49.0606 141.859 44.842 141.859 39.2927C141.859 33.7435 144.635 29.5249 149.421 29.5249ZM149.421 32.2995C146.589 32.2995 145.06 35.329 145.06 39.2927C145.06 43.2565 146.589 46.2576 149.421 46.2576C152.254 46.2576 153.783 43.1999 153.783 39.2927C153.783 35.3856 152.225 32.2995 149.421 32.2995Z" fill="#1D1D1B"/>
<path d="M170.831 48.7209L163.835 35.6688V48.7209H160.691V29.8364H163.863L170.689 42.4072V29.8364H173.833V48.7209H170.831Z" fill="#1D1D1B"/>
<path d="M26.645 8.78172C26.645 11.4478 24.4972 13.609 21.8444 13.609C19.1963 13.6137 17.0438 11.4525 17.0391 8.79588C17.0343 6.12506 19.1821 3.96387 21.8397 3.96387C24.4878 3.96387 26.6402 6.11562 26.645 8.78172Z" fill="#FAB60A"/>
<path d="M5.81036 9.67818C5.50826 4.30351 9.15709 0.703096 15.5059 0C11.2529 2.57173 9.48279 6.76199 10.9225 10.4521C12.6124 14.7792 16.771 17.0678 27.1888 21.0457C39.2965 25.6701 40.9816 31.6818 36.1763 39.0949C37.0496 32.6491 32.4945 29.1148 23.894 25.6748C13.6792 21.5883 6.23519 17.2093 5.81036 9.67818Z" fill="#FAB60A"/>
<path d="M3.86392 7.99854C0.706007 16.4451 8.75891 22.5087 23.6988 28.9498C37.3783 34.8483 34.8388 42.9693 29.7314 45.7628C33.3519 39.5387 25.8513 35.4381 16.4625 31.2384C3.9536 25.6514 -4.28811 17.4927 3.86392 7.99854Z" fill="#FAB60A"/>
<path d="M0.253488 21.8149C2.49565 27.3076 7.59834 30.941 19.2859 35.9901C32.5359 41.714 27.0178 49.6132 20.5934 50.0048C24.0299 47.4331 23.2604 43.6156 19.3473 41.2798C15.8023 39.1564 8.32527 36.5092 4.31298 32.9843C1.81592 30.7806 -0.841631 27.2557 0.253488 21.8149Z" fill="#FAB60A"/>
<path d="M46.7696 15.7748C47.7892 16.9356 49.4036 17.8133 51.2728 17.8133C53.1421 17.8133 54.2183 16.6525 54.2183 15.3218C54.2183 13.623 52.6323 12.8869 50.8197 12.0658C48.469 11.0466 45.75 9.88578 45.75 6.3467C45.75 3.4022 48.0441 1.08057 51.6127 1.08057C53.8218 1.08057 55.6911 1.81669 57.0505 3.11907L55.5211 5.49733C54.4166 4.39314 53.0005 3.88351 51.5277 3.88351C50.055 3.88351 48.9504 4.78951 48.9504 6.17683C48.9504 7.56415 50.4515 8.30027 52.2075 9.09302C54.6148 10.1689 57.4187 11.4147 57.4187 15.067C57.4187 18.153 55.3229 20.6162 51.2728 20.6162C48.5822 20.6162 46.5714 19.6819 45.1836 18.2097L46.7696 15.7748Z" fill="#1D1D1B"/>
<path d="M72.1473 20.2766L69.4284 6.71485L66.7378 20.2766H63.4524L59.1758 1.39209H62.5461L65.265 15.4918L68.1822 1.39209H70.7029L73.6484 15.4918L76.3389 1.39209H79.7093L75.4326 20.2766H72.1473Z" fill="#1D1D1B"/>
<path d="M82.7969 20.2766V1.39209H85.9406V20.2766H82.7969Z" fill="#1D1D1B"/>
<path d="M90.8087 15.7748C91.8283 16.9356 93.4426 17.8133 95.3119 17.8133C97.1811 17.8133 98.2574 16.6525 98.2574 15.3218C98.2574 13.623 96.6714 12.8869 94.8587 12.0658C92.508 11.0466 89.7891 9.88578 89.7891 6.3467C89.7891 3.4022 92.0832 1.08057 95.6518 1.08057C97.8609 1.08057 99.7301 1.81669 101.09 3.11907L99.5602 5.49733C98.4556 4.39314 97.0395 3.88351 95.5668 3.88351C94.0941 3.88351 92.9895 4.78951 92.9895 6.17683C92.9895 7.56415 94.4906 8.30027 96.2465 9.09302C98.6539 10.1689 101.458 11.4147 101.458 15.067C101.458 18.153 99.3619 20.6162 95.3119 20.6162C92.6213 20.6162 90.6104 19.6819 89.2227 18.2097L90.8087 15.7748Z" fill="#1D1D1B"/>
<path d="M105.141 15.7748C106.16 16.9356 107.775 17.8133 109.644 17.8133C111.513 17.8133 112.589 16.6525 112.589 15.3218C112.589 13.623 111.003 12.8869 109.191 12.0658C106.84 11.0466 104.121 9.88578 104.121 6.3467C104.121 3.4022 106.415 1.08057 109.984 1.08057C112.193 1.08057 114.062 1.81669 115.422 3.11907L113.892 5.49733C112.788 4.39314 111.372 3.88351 109.899 3.88351C108.426 3.88351 107.322 4.78951 107.322 6.17683C107.322 7.56415 108.823 8.30027 110.579 9.09302C112.986 10.1689 115.79 11.4147 115.79 15.067C115.79 18.153 113.694 20.6162 109.644 20.6162C106.953 20.6162 104.942 19.6819 103.555 18.2097L105.141 15.7748Z" fill="#1D1D1B"/>
<path d="M124.938 10.8484C124.938 5.15758 127.911 1.08057 132.556 1.08057C135.926 1.08057 137.626 3.14738 138.617 5.24251L136.011 6.40333C135.36 4.90276 134.199 3.8552 132.556 3.8552C129.866 3.8552 128.138 6.79971 128.138 10.8484C128.138 14.8971 129.866 17.8133 132.556 17.8133C134.284 17.8133 135.445 16.6242 136.04 15.0387L138.645 16.1995C137.682 18.4079 135.983 20.6162 132.556 20.6162C127.911 20.6162 124.938 16.5109 124.938 10.8484Z" fill="#1D1D1B"/>
<path d="M151.505 20.2766L150.485 16.5393H143.999L142.98 20.2766H139.723L145.359 1.39209H149.126L154.762 20.2766H151.505ZM147.256 4.19503L144.651 13.7647H149.862L147.256 4.19503Z" fill="#1D1D1B"/>
<path d="M157.535 15.7748C158.555 16.9356 160.169 17.8133 162.038 17.8133C163.908 17.8133 164.984 16.6525 164.984 15.3218C164.984 13.623 163.398 12.8869 161.585 12.0658C159.235 11.0466 156.516 9.88578 156.516 6.3467C156.516 3.4022 158.81 1.08057 162.378 1.08057C164.587 1.08057 166.457 1.81669 167.816 3.11907L166.287 5.49733C165.182 4.39314 163.766 3.88351 162.293 3.88351C160.821 3.88351 159.716 4.78951 159.716 6.17683C159.716 7.56415 161.217 8.30027 162.973 9.09302C165.38 10.1689 168.184 11.4147 168.184 15.067C168.184 18.153 166.089 20.6162 162.038 20.6162C159.348 20.6162 157.337 19.6819 155.949 18.2097L157.535 15.7748Z" fill="#1D1D1B"/>
<path d="M171.812 20.2766V1.39209H174.956V20.2766H171.812Z" fill="#1D1D1B"/>
<path d="M190.276 20.2766L183.28 7.22448V20.2766H180.137V1.39209H183.309L190.134 13.9629V1.39209H193.278V20.2766H190.276Z" fill="#1D1D1B"/>
<path d="M204.437 1.08057C209.223 1.08057 211.999 5.29914 211.999 10.8484C211.999 16.3977 209.223 20.6162 204.437 20.6162C199.651 20.6162 196.875 16.3977 196.875 10.8484C196.875 5.29914 199.651 1.08057 204.437 1.08057ZM204.437 3.8552C201.605 3.8552 200.075 6.88464 200.075 10.8484C200.075 14.8122 201.605 17.8133 204.437 17.8133C207.269 17.8133 208.799 14.7555 208.799 10.8484C208.799 6.94127 207.241 3.8552 204.437 3.8552Z" fill="#1D1D1B"/>
</g>
<defs>
<clipPath id="clip0_688_173">
<rect width="212" height="50" fill="white"/>
</clipPath>
</defs>
</svg>
