<svg width="297" height="70" viewBox="0 0 297 70" fill="none" xmlns="http://www.w3.org/2000/svg">
<g clip-path="url(#clip0_688_173)">
<path d="M65.0312 68.2098V41.7715H74.0381C79.2358 41.7715 81.8546 45.5767 81.8546 49.9765C81.8546 54.3762 79.2358 58.2211 74.0381 58.2211H69.4355V68.2098H65.0312ZM73.5223 45.6163H69.4355V54.3366H73.5223C75.8632 54.3366 77.371 52.5926 77.371 49.9765C77.371 47.3604 75.8632 45.6163 73.5223 45.6163Z" fill="#1D1D1B"/>
<path d="M86.1797 68.2098V41.7715H100.662V45.6163H90.5839V52.7907H100.384V56.6752H90.5839V68.2098H86.1797Z" fill="#1D1D1B"/>
<path d="M119.111 68.2096L117.683 62.9774H108.597L107.168 68.2096H102.605L110.501 41.7713H115.778L123.674 68.2096H119.111ZM107.327 36.9355C107.327 35.7068 108.319 34.7158 109.549 34.7158C110.779 34.7158 111.771 35.7068 111.771 36.9355C111.771 38.1643 110.779 39.1552 109.549 39.1552C108.319 39.1552 107.327 38.1643 107.327 36.9355ZM113.16 45.6954L109.509 59.0929H116.81L113.16 45.6954ZM114.509 36.9355C114.509 35.7068 115.54 34.7158 116.731 34.7158C117.921 34.7158 118.992 35.7068 118.992 36.9355C118.992 38.1643 117.961 39.1552 116.731 39.1552C115.501 39.1552 114.509 38.1643 114.509 36.9355Z" fill="#1D1D1B"/>
<path d="M127.879 68.2098V41.7715H142.361V45.6163H132.283V52.7907H142.083V56.6752H132.283V68.2098H127.879Z" fill="#1D1D1B"/>
<path d="M147.48 68.2098V41.7715H161.963V45.6163H151.885V52.7907H161.685V56.6752H151.885V68.2098H147.48Z" fill="#1D1D1B"/>
<path d="M167.082 68.2098V41.7715H171.486V68.2098H167.082Z" fill="#1D1D1B"/>
<path d="M191.517 68.2098L184.693 57.3094L182.709 60.3219V68.2098H178.305V41.7715H182.709V54.4952L190.922 41.7715H196.08L187.431 54.2573L196.715 68.2098H191.517Z" fill="#1D1D1B"/>
<path d="M209.332 41.3354C216.038 41.3354 219.926 47.2414 219.926 55.0104C219.926 62.7794 216.038 68.6854 209.332 68.6854C202.627 68.6854 198.738 62.7794 198.738 55.0104C198.738 47.2414 202.627 41.3354 209.332 41.3354ZM209.332 45.2199C205.364 45.2199 203.222 49.4612 203.222 55.0104C203.222 60.5597 205.364 64.7613 209.332 64.7613C213.3 64.7613 215.443 60.4804 215.443 55.0104C215.443 49.5404 213.26 45.2199 209.332 45.2199Z" fill="#1D1D1B"/>
<path d="M239.33 68.2098L229.529 49.9368V68.2098H225.125V41.7715H229.569L239.131 59.3706V41.7715H243.535V68.2098H239.33Z" fill="#1D1D1B"/>
<path d="M37.3323 12.2943C37.3323 16.0269 34.3234 19.0525 30.607 19.0525C26.8971 19.0591 23.8816 16.0335 23.875 12.3141C23.8684 8.57499 26.8773 5.54932 30.6004 5.54932C34.3102 5.54932 37.3257 8.56177 37.3323 12.2943Z" fill="#FAB60A"/>
<path d="M8.14156 13.5495C7.71833 6.02491 12.8301 0.984334 21.7245 0C15.7663 3.60042 13.2864 9.46678 15.3034 14.6329C17.6708 20.6908 23.4968 23.8949 38.0915 29.4639C55.0537 35.9381 57.4145 44.3545 50.6825 54.7329C51.9059 45.7088 45.5245 40.7607 33.4757 35.9447C19.1653 30.2237 8.73672 24.0931 8.14156 13.5495Z" fill="#FAB60A"/>
<path d="M5.41646 11.1978C0.992411 23.023 12.2741 31.512 33.204 40.5296C52.3683 48.7874 48.8105 60.1568 41.6553 64.0677C46.7275 55.354 36.2195 49.6132 23.0664 43.7336C5.54211 35.9118 -6.00407 24.4896 5.41646 11.1978Z" fill="#FAB60A"/>
<path d="M0.359028 30.5405C3.50017 38.2302 10.6488 43.317 27.0224 50.3858C45.5849 58.3992 37.8544 69.458 28.8542 70.0064C33.6684 66.406 32.5905 61.0615 27.1083 57.7914C22.142 54.8186 11.6671 51.1124 6.04615 46.1776C2.54791 43.0924 -1.17517 38.1576 0.359028 30.5405Z" fill="#FAB60A"/>
<path d="M65.5227 22.0846C66.9511 23.7098 69.2127 24.9385 71.8315 24.9385C74.4502 24.9385 75.9579 23.3134 75.9579 21.4504C75.9579 19.0722 73.736 18.0416 71.1966 16.8921C67.9034 15.4651 64.0943 13.84 64.0943 8.88529C64.0943 4.76298 67.3082 1.5127 72.3076 1.5127C75.4024 1.5127 78.0212 2.54327 79.9257 4.3666L77.7831 7.69616C76.2357 6.15029 74.2518 5.43682 72.1886 5.43682C70.1253 5.43682 68.5779 6.70522 68.5779 8.64746C68.5779 10.5897 70.6808 11.6203 73.1408 12.7301C76.5134 14.2364 80.4415 15.9804 80.4415 21.0937C80.4415 25.4142 77.5054 28.8626 71.8315 28.8626C68.0621 28.8626 65.245 27.5546 63.3008 25.4934L65.5227 22.0846Z" fill="#1D1D1B"/>
<path d="M101.075 28.387L97.2656 9.4006L93.4963 28.387H88.8937L82.9023 1.94873H87.624L91.433 21.6883L95.5198 1.94873H99.0511L103.178 21.6883L106.947 1.94873H111.669L105.677 28.387H101.075Z" fill="#1D1D1B"/>
<path d="M115.992 28.387V1.94873H120.396V28.387H115.992Z" fill="#1D1D1B"/>
<path d="M127.222 22.0846C128.65 23.7098 130.912 24.9385 133.531 24.9385C136.149 24.9385 137.657 23.3134 137.657 21.4504C137.657 19.0722 135.435 18.0416 132.896 16.8921C129.603 15.4651 125.794 13.84 125.794 8.88529C125.794 4.76298 129.007 1.5127 134.007 1.5127C137.102 1.5127 139.72 2.54327 141.625 4.3666L139.482 7.69616C137.935 6.15029 135.951 5.43682 133.888 5.43682C131.825 5.43682 130.277 6.70522 130.277 8.64746C130.277 10.5897 132.38 11.6203 134.84 12.7301C138.213 14.2364 142.141 15.9804 142.141 21.0937C142.141 25.4142 139.205 28.8626 133.531 28.8626C129.761 28.8626 126.944 27.5546 125 25.4934L127.222 22.0846Z" fill="#1D1D1B"/>
<path d="M147.3 22.0846C148.728 23.7098 150.99 24.9385 153.609 24.9385C156.228 24.9385 157.735 23.3134 157.735 21.4504C157.735 19.0722 155.513 18.0416 152.974 16.8921C149.681 15.4651 145.872 13.84 145.872 8.88529C145.872 4.76298 149.086 1.5127 154.085 1.5127C157.18 1.5127 159.799 2.54327 161.703 4.3666L159.56 7.69616C158.013 6.15029 156.029 5.43682 153.966 5.43682C151.903 5.43682 150.355 6.70522 150.355 8.64746C150.355 10.5897 152.458 11.6203 154.918 12.7301C158.291 14.2364 162.219 15.9804 162.219 21.0937C162.219 25.4142 159.283 28.8626 153.609 28.8626C149.839 28.8626 147.022 27.5546 145.078 25.4934L147.3 22.0846Z" fill="#1D1D1B"/>
<path d="M175.031 15.1877C175.031 7.22051 179.197 1.5127 185.705 1.5127C190.426 1.5127 192.807 4.40624 194.196 7.33942L190.545 8.96456C189.633 6.86377 188.006 5.39718 185.705 5.39718C181.935 5.39718 179.515 9.51949 179.515 15.1877C179.515 20.8558 181.935 24.9385 185.705 24.9385C188.125 24.9385 189.752 23.2737 190.585 21.054L194.235 22.6792C192.886 25.7709 190.506 28.8626 185.705 28.8626C179.197 28.8626 175.031 23.1152 175.031 15.1877Z" fill="#1D1D1B"/>
<path d="M212.252 28.387L210.824 23.1548H201.737L200.309 28.387H195.746L203.642 1.94873H208.919L216.815 28.387H212.252ZM206.3 5.87285L202.65 19.2704H209.951L206.3 5.87285Z" fill="#1D1D1B"/>
<path d="M220.702 22.0846C222.131 23.7098 224.392 24.9385 227.011 24.9385C229.63 24.9385 231.138 23.3134 231.138 21.4504C231.138 19.0722 228.916 18.0416 226.376 16.8921C223.083 15.4651 219.274 13.84 219.274 8.88529C219.274 4.76298 222.488 1.5127 227.487 1.5127C230.582 1.5127 233.201 2.54327 235.105 4.3666L232.963 7.69616C231.415 6.15029 229.431 5.43682 227.368 5.43682C225.305 5.43682 223.758 6.70522 223.758 8.64746C223.758 10.5897 225.861 11.6203 228.321 12.7301C231.693 14.2364 235.621 15.9804 235.621 21.0937C235.621 25.4142 232.685 28.8626 227.011 28.8626C223.242 28.8626 220.425 27.5546 218.48 25.4934L220.702 22.0846Z" fill="#1D1D1B"/>
<path d="M240.699 28.387V1.94873H245.103V28.387H240.699Z" fill="#1D1D1B"/>
<path d="M266.568 28.387L256.767 10.1141V28.387H252.363V1.94873H256.807L266.369 19.5478V1.94873H270.774V28.387H266.568Z" fill="#1D1D1B"/>
<path d="M286.406 1.5127C293.112 1.5127 297 7.4187 297 15.1877C297 22.9566 293.112 28.8626 286.406 28.8626C279.701 28.8626 275.812 22.9566 275.812 15.1877C275.812 7.4187 279.701 1.5127 286.406 1.5127ZM286.406 5.39718C282.439 5.39718 280.296 9.6384 280.296 15.1877C280.296 20.7369 282.439 24.9385 286.406 24.9385C290.374 24.9385 292.517 20.6577 292.517 15.1877C292.517 9.71768 290.335 5.39718 286.406 5.39718Z" fill="#1D1D1B"/>
</g>
<defs>
<clipPath id="clip0_688_173">
<rect width="297" height="70" fill="white"/>
</clipPath>
</defs>
</svg>
